<svg width="24" height="24" viewBox="0 0 24 24" fill="none" xmlns="http://www.w3.org/2000/svg">
<path d="M7.37956 5.11277L7.38041 5.11393L9.39957 7.89277C9.39966 7.8929 9.39976 7.89304 9.39986 7.89318C9.498 8.02952 9.46773 8.21593 9.3332 8.31393C9.30599 8.33318 9.27535 8.34805 9.24738 8.35652C9.22041 8.3647 9.20667 8.3638 9.20667 8.36386L9.17604 8.36003H9.14491C9.04527 8.36003 8.9643 8.32148 8.9094 8.2461C8.90936 8.24604 8.90932 8.24599 8.90927 8.24593L6.89024 5.46729C6.89013 5.46713 6.89002 5.46698 6.88991 5.46682C6.79156 5.33013 6.82226 5.14313 6.95765 5.04535C7.09438 4.94661 7.28167 4.97722 7.37956 5.11277ZM7.47115 10.2158L7.47931 10.2184L7.48755 10.2208C7.62764 10.2608 7.72064 10.4242 7.67183 10.578C7.61653 10.7296 7.49681 10.8 7.3849 10.8C7.38574 10.8 7.37828 10.8001 7.35703 10.7961C7.33725 10.7924 7.3155 10.7872 7.28242 10.779L4.01866 9.72425L4.0105 9.72162L4.00226 9.71926C3.86099 9.6789 3.76761 9.51306 3.81925 9.35814L3.82269 9.34783L3.82567 9.33739C3.86603 9.19612 4.03188 9.10273 4.18679 9.15437L4.19115 9.1558L7.47115 10.2158ZM4.19115 14.8442L4.15515 14.8559L4.14755 14.8597L4.13098 14.86L4.10491 14.86C3.9725 14.86 3.85809 14.7728 3.82459 14.6589L3.82207 14.6504L3.81925 14.6419C3.7732 14.5038 3.84465 14.3348 4.02126 14.275L7.28878 13.219C7.4585 13.1739 7.61897 13.2634 7.67057 13.4181C7.71661 13.5563 7.64516 13.7253 7.46853 13.7851L4.19115 14.8442ZM7.36179 18.8842L7.36054 18.8859C7.28989 18.9831 7.19706 19.02 7.12491 19.02C7.08983 19.02 7.02976 19.0059 6.9567 18.954C6.8221 18.856 6.79178 18.6695 6.88995 18.5332C6.89005 18.533 6.89015 18.5329 6.89024 18.5328L8.9094 15.754L8.91024 15.7528C9.00814 15.6172 9.19544 15.5866 9.33216 15.6854C9.46731 15.783 9.49814 15.9695 9.40042 16.1061C9.40014 16.1065 9.39985 16.1069 9.39957 16.1073L7.36179 18.8842ZM15.1196 15.7528L15.1204 15.7539L17.1396 18.5328C17.1397 18.5329 17.1397 18.533 17.1398 18.5331C17.238 18.6695 17.2077 18.856 17.0731 18.954C17.046 18.9732 17.0154 18.988 16.9874 18.9965C16.9585 19.0053 16.9448 19.0036 16.9469 19.0039L16.916 19H16.8849C16.7852 19 16.7043 18.9615 16.6494 18.8861C16.6494 18.8861 16.6493 18.886 16.6493 18.8859L14.6302 16.1073C14.6301 16.1071 14.63 16.1069 14.6299 16.1067C14.5316 15.9701 14.5623 15.7831 14.6977 15.6854C14.8344 15.5866 15.0217 15.6172 15.1196 15.7528ZM20.1906 14.6619L20.1905 14.6619L20.1877 14.6709C20.1598 14.7601 20.0493 14.8622 19.896 14.8792C19.8916 14.8786 19.8854 14.8777 19.8771 14.8761C19.8573 14.8724 19.8356 14.8672 19.8024 14.859L16.5387 13.8043L16.5305 13.8016L16.5223 13.7993C16.381 13.7589 16.2876 13.5931 16.3392 13.4381L16.3427 13.4278L16.3457 13.4174C16.386 13.2761 16.5519 13.1827 16.7068 13.2344L16.7112 13.2358L19.9912 14.2958L19.9993 14.2984L20.0075 14.3008C20.1488 14.3411 20.2422 14.507 20.1906 14.6619ZM16.3446 10.5989L16.3421 10.5904L16.3392 10.5819C16.2932 10.4438 16.3647 10.2748 16.5413 10.2149C16.5419 10.2147 16.5424 10.2145 16.543 10.2144L19.8088 9.159C19.9785 9.11388 20.139 9.20337 20.1906 9.35814C20.2366 9.49629 20.1652 9.66528 19.9885 9.7251C19.9879 9.7253 19.9874 9.72549 19.9868 9.72568L16.7274 10.779C16.6943 10.7872 16.6726 10.7924 16.6528 10.7961C16.6315 10.8001 16.6241 10.8 16.6249 10.8C16.4925 10.8 16.3781 10.7128 16.3446 10.5989ZM16.6294 5.11393L16.6302 5.11277C16.7281 4.97722 16.9154 4.94661 17.0522 5.04535C17.1875 5.14313 17.2182 5.33012 17.1199 5.46682C17.1198 5.46698 17.1197 5.46713 17.1196 5.46729L15.1005 8.24593C15.034 8.33748 14.9438 8.38003 14.8449 8.38003C14.8099 8.38003 14.7498 8.3659 14.6767 8.31398C14.5421 8.216 14.5118 8.02955 14.61 7.89318C14.6101 7.89304 14.6101 7.8929 14.6102 7.89277L16.6294 5.11393ZM12.0049 7.44001C11.841 7.44001 11.7049 7.30387 11.7049 7.14001V3.70002C11.7049 3.53617 11.841 3.40002 12.0049 3.40002C12.1688 3.40002 12.3049 3.53617 12.3049 3.70002V7.14001C12.3049 7.30387 12.1688 7.44001 12.0049 7.44001ZM12.3049 16.86V20.3C12.3049 20.4639 12.1688 20.6 12.0049 20.6C11.841 20.6 11.7049 20.4639 11.7049 20.3V16.86C11.7049 16.6962 11.841 16.56 12.0049 16.56C12.1688 16.56 12.3049 16.6962 12.3049 16.86Z" stroke="#666A80"/>
</svg>
